<svg xmlns="http://www.w3.org/2000/svg" viewBox="0 0 24.27 25.74"><defs><style>.cls-1{fill:#bababa;}</style></defs><title>AddressBookAsset 5</title><g id="Layer_2" data-name="Layer 2"><g id="Layer_1-2" data-name="Layer 1"><path class="cls-1" d="M14.84,12.55H12.05c-3.52,0-3.88,5.18-3.56,5.51a7.86,7.86,0,0,0,5,1.39,7.55,7.55,0,0,0,4.82-1.31C18.63,17.86,18.36,12.55,14.84,12.55Zm2.69,4.82a6.69,6.69,0,0,1-4.05,1,6.78,6.78,0,0,1-4.06-1c-.05-.16.26-3.78,2.69-3.78H14.9c2.41,0,2.69,3.61,2.63,3.78Z"/><path class="cls-1" d="M13.42,12.22a2.91,2.91,0,0,0,3-3,3,3,0,1,0-3,3Zm0-4.82a1.86,1.86,0,0,1,1.92,1.86A1.92,1.92,0,1,1,13.42,7.4Z"/><path class="cls-1" d="M21.91,0H4.55A2.34,2.34,0,0,0,2.19,2.36V7.18H0V8.27H2.19v4.05H0v1.1H2.19v4H0v1.1H2.19v4.82a2.34,2.34,0,0,0,2.36,2.35H21.86a2.42,2.42,0,0,0,2.41-2.35v-21A2.34,2.34,0,0,0,21.91,0Zm1.26,23.4a1.26,1.26,0,0,1-1.25,1.25H4.55A1.27,1.27,0,0,1,3.29,23.4V18.58H5.38v-1.1H3.29V13.43H5.37v-1.1H3.29V8.28H5.37V7.19H3.29V2.36A1.27,1.27,0,0,1,4.55,1.1H21.91a1.27,1.27,0,0,1,1.26,1.26v21Z"/></g></g></svg>