<svg xmlns="http://www.w3.org/2000/svg" viewBox="0 0 30.71 25.59"><defs><style>.cls-1{fill:#bababa;}</style></defs><title>DashboardAsset 1</title><g id="Layer_2" data-name="Layer 2"><g id="Layer_1-2" data-name="Layer 1"><path class="cls-1" d="M28.15,3.84h-6.4V2.56A2.56,2.56,0,0,0,19.19,0H11.52A2.56,2.56,0,0,0,9,2.56V3.84H2.56A2.56,2.56,0,0,0,0,6.4V23a2.56,2.56,0,0,0,2.56,2.56H28.15A2.56,2.56,0,0,0,30.71,23V6.4A2.56,2.56,0,0,0,28.15,3.84ZM10.24,2.56a1.28,1.28,0,0,1,1.28-1.28h7.67a1.28,1.28,0,0,1,1.28,1.28V3.84H10.24ZM29.43,23a1.28,1.28,0,0,1-1.28,1.28H2.56A1.28,1.28,0,0,1,1.28,23V13.72a2.54,2.54,0,0,0,1.28.36H12.8V16a.64.64,0,0,0,.64.64h3.84a.64.64,0,0,0,.64-.64V14.08H28.15a2.54,2.54,0,0,0,1.28-.36V23ZM14.08,15.36V12.8h2.56v2.56Zm15.35-3.84a1.28,1.28,0,0,1-1.28,1.28H17.92v-.64a.64.64,0,0,0-.64-.64H13.44a.63.63,0,0,0-.64.64v.64H2.56a1.28,1.28,0,0,1-1.28-1.28V6.4A1.28,1.28,0,0,1,2.56,5.12H28.15A1.28,1.28,0,0,1,29.43,6.4Z"/></g></g></svg>