<svg xmlns="http://www.w3.org/2000/svg" viewBox="0 0 30.33 25.59"><defs><style>.cls-1{fill:#bababa;}</style></defs><title>MessagesAsset 8</title><g id="Layer_2" data-name="Layer 2"><g id="Layer_1-2" data-name="Layer 1"><path class="cls-1" d="M27.71,8.07H21V2.59A2.61,2.61,0,0,0,18.36,0H2.59A2.6,2.6,0,0,0,0,2.59v9.49a2.61,2.61,0,0,0,2.59,2.6H4.13l1.93,2.59a.63.63,0,0,0,.55.26.78.78,0,0,0,.55-.26l1.93-2.59h.29v5.47A2.6,2.6,0,0,0,12,22.74h9.27l1.94,2.6a.59.59,0,0,0,.54.25.79.79,0,0,0,.55-.25l1.93-2.6h1.54a2.6,2.6,0,0,0,2.59-2.59V10.66A2.59,2.59,0,0,0,27.71,8.07Zm-19,5.25a.76.76,0,0,0-.55.26L6.57,15.7,5,13.58a.63.63,0,0,0-.55-.26H2.52a1.23,1.23,0,0,1-1.24-1.24V2.59A1.23,1.23,0,0,1,2.52,1.35H18.29a1.23,1.23,0,0,1,1.24,1.24v9.49a1.22,1.22,0,0,1-1.24,1.24H8.73ZM29,20.15a1.23,1.23,0,0,1-1.24,1.24h-1.9a.76.76,0,0,0-.55.26l-1.61,2.11-1.6-2.11a.63.63,0,0,0-.55-.26H12a1.24,1.24,0,0,1-1.25-1.24V14.68h7.63a2.55,2.55,0,0,0,1.39-.41h5.11a.66.66,0,1,0,0-1.31h-4a2.18,2.18,0,0,0,.15-.87V9.46h6.75A1.22,1.22,0,0,1,29,10.7v9.45Zm-3.51-2.77a.65.65,0,0,1-.65.65H14.9a.66.66,0,1,1,0-1.31h9.93A.65.65,0,0,1,25.48,17.38ZM15.37,10H5.48a.66.66,0,1,1,0-1.31h9.89a.65.65,0,0,1,.65.66A.62.62,0,0,1,15.37,10ZM4.82,5.51a.65.65,0,0,1,.66-.65h5.94a.66.66,0,1,1,0,1.31H5.48A.65.65,0,0,1,4.82,5.51Z"/></g></g></svg>