<svg xmlns="http://www.w3.org/2000/svg" viewBox="0 0 29.42 25.86"><defs><style>.cls-1{fill:#bababa;}</style></defs><title>SendAsset 3</title><g id="Layer_2" data-name="Layer 2"><g id="Layer_1-2" data-name="Layer 1"><path class="cls-1" d="M28.67,17.75a.76.76,0,0,0-.75.75v2.86a3,3,0,0,1-3,3H4.49a3,3,0,0,1-3-3V18.5a.76.76,0,0,0-.75-.75A.76.76,0,0,0,0,18.5v2.86a4.5,4.5,0,0,0,4.49,4.5H24.93a4.5,4.5,0,0,0,4.49-4.5V18.5A.75.75,0,0,0,28.67,17.75Z"/><path class="cls-1" d="M5.3,22.2H24.12a.75.75,0,0,0,0-1.5H5.3a.75.75,0,0,0,0,1.5Z"/><path class="cls-1" d="M22.23,6.08,16,.48a1.87,1.87,0,0,0-2.5,0L7.19,6.08a.75.75,0,0,0-.06,1.06.76.76,0,0,0,1.06.06L14,2V16.56a.75.75,0,0,0,1.5,0V2L21.23,7.2a.75.75,0,0,0,.5.19.77.77,0,0,0,.56-.25A.75.75,0,0,0,22.23,6.08Z"/></g></g></svg>