<svg xmlns="http://www.w3.org/2000/svg" viewBox="0 0 25.72 25.72"><defs><style>.cls-1{fill:#bababa;}</style></defs><title>SideStakesAsset 6</title><g id="Layer_2" data-name="Layer 2"><g id="Layer_1-2" data-name="Layer 1"><path class="cls-1" d="M12.86,16.42a3.56,3.56,0,1,1,3.56-3.56A3.56,3.56,0,0,1,12.86,16.42Zm0-6.17a2.61,2.61,0,1,0,2.61,2.61A2.61,2.61,0,0,0,12.86,10.25Z"/><path class="cls-1" d="M12.86,7.21a.49.49,0,0,0,.48-.48V1.62L14.4,2.68a.44.44,0,0,0,.33.15A.49.49,0,0,0,15.07,2L13.19.14a.46.46,0,0,0-.67,0L10.65,2a.47.47,0,1,0,.67.67l1.06-1.06V6.73A.48.48,0,0,0,12.86,7.21Z"/><path class="cls-1" d="M10.65,23.7l1.87,1.88a.51.51,0,0,0,.34.14.47.47,0,0,0,.33-.14l1.88-1.88A.47.47,0,0,0,14.4,23l-1.06,1.06V19a.48.48,0,0,0-1,0v5.11L11.32,23a.48.48,0,0,0-.67,0A.47.47,0,0,0,10.65,23.7Z"/><path class="cls-1" d="M2,15.07a.51.51,0,0,0,.34.14.47.47,0,0,0,.33-.14.46.46,0,0,0,0-.67L1.62,13.34H6.73a.48.48,0,0,0,0-1H1.62l1.06-1.06A.47.47,0,1,0,2,10.65L.14,12.52a.46.46,0,0,0,0,.67Z"/><path class="cls-1" d="M18.51,12.86a.48.48,0,0,0,.47.48h5.11L23,14.4a.48.48,0,0,0,0,.67.51.51,0,0,0,.34.14.47.47,0,0,0,.33-.14l1.88-1.88a.48.48,0,0,0,0-.67L23.7,10.65a.46.46,0,0,0-.67,0,.48.48,0,0,0,0,.67l1.06,1.06H19A.48.48,0,0,0,18.51,12.86Z"/><path class="cls-1" d="M7.23,4.1a.49.49,0,0,0-.48-.48H4.1a.49.49,0,0,0-.48.48V6.75a.48.48,0,0,0,1,0V5.25L8.19,8.86A.47.47,0,0,0,8.53,9a.43.43,0,0,0,.33-.14.47.47,0,0,0,0-.67L5.25,4.58h1.5A.49.49,0,0,0,7.23,4.1Z"/><path class="cls-1" d="M16.85,17.52l3.61,3.62H19a.48.48,0,0,0,0,.95h2.65a.47.47,0,0,0,.48-.48V19a.48.48,0,0,0-.95,0v1.5l-3.62-3.61a.48.48,0,0,0-.67,0A.46.46,0,0,0,16.85,17.52Z"/><path class="cls-1" d="M4.1,18.49a.48.48,0,0,0-.48.47v2.65a.48.48,0,0,0,.48.48H6.75a.48.48,0,1,0,0-.95H5.25l3.61-3.62a.46.46,0,0,0,0-.67.48.48,0,0,0-.67,0L4.58,20.46V19A.48.48,0,0,0,4.1,18.49Z"/><path class="cls-1" d="M16.85,8.86a.47.47,0,0,0,.34.14.43.43,0,0,0,.33-.14l3.62-3.61v1.5a.48.48,0,1,0,.95,0V4.1a.48.48,0,0,0-.48-.48H19a.48.48,0,0,0,0,1h1.5L16.85,8.19A.46.46,0,0,0,16.85,8.86Z"/></g></g></svg>