<svg xmlns="http://www.w3.org/2000/svg" viewBox="0 0 25.55 25.72"><defs><style>.cls-1{fill:#bababa;}</style></defs><title>TransactionsAsset 7</title><g id="Layer_2" data-name="Layer 2"><g id="Layer_1-2" data-name="Layer 1"><path class="cls-1" d="M25.4,18.74a.53.53,0,0,0-.74,0l-5.19,5.19V.52a.53.53,0,0,0-1,0V23.93l-5.19-5.19a.52.52,0,1,0-.74.74l6.08,6.09a.55.55,0,0,0,.37.15.51.51,0,0,0,.37-.15l6.09-6.09A.53.53,0,0,0,25.4,18.74Z"/><path class="cls-1" d="M.52,1.05H16.24a.52.52,0,0,0,.52-.53A.52.52,0,0,0,16.24,0H.52A.52.52,0,0,0,0,.52.52.52,0,0,0,.52,1.05Z"/><path class="cls-1" d="M.52,7.17H16.24a.52.52,0,1,0,0-1H.52a.52.52,0,1,0,0,1Z"/><path class="cls-1" d="M.52,13.3H16.24a.53.53,0,0,0,0-1.05H.52a.53.53,0,0,0,0,1.05Z"/><path class="cls-1" d="M10.77,18.38H.52A.52.52,0,0,0,0,18.9a.52.52,0,0,0,.52.53H10.77a.52.52,0,0,0,.52-.53A.52.52,0,0,0,10.77,18.38Z"/><path class="cls-1" d="M10.77,24.5H.52A.52.52,0,0,0,0,25a.52.52,0,0,0,.52.52H10.77a.52.52,0,0,0,.52-.52A.52.52,0,0,0,10.77,24.5Z"/></g></g></svg>