<svg version="1.1" xmlns="http://www.w3.org/2000/svg">
    <defs>
        <symbol id="minimize" viewBox="0 0 20 2">
            <polygon
                stroke-width="2px"
                transform="translate(-120, -418)"
                points="120.003 420 140.003 420 140.003 418 120.003 418"
            >
            </polygon>
        </symbol>
        <symbol id="maximize" viewBox="0 0 20 20">
            <path
                stroke-width="3px"
                fill-rule="evenodd"
                transform="translate(-240, -80)"
                d="M242,98 L258,98 L258,82 L242,82 L242,98 Z M240,100 L260,100 L260,80 L240,80 L240,100 Z"
            >
            </path>
        </symbol>
        <symbol id="close" viewBox="0 0 20 20">
            <polygon
                stroke-width="2px"
                transform="translate(-360, -80)"
                points="371.4489 89.9997 380.0029 98.5537 378.5559 99.9997 370.0029 91.4457 361.4489 99.9997 360.0029 98.5537 368.5559 89.9997 360.0029 81.4457 361.4489 79.9997 370.0029 88.5537 378.5559 79.9997 380.0029 81.4457"
            >
            </polygon>
        </symbol>
        <symbol id="dashboard" viewBox="0 0 31 30">
            <path
                stroke="none"
                fill-rule="evenodd"
                transform="translate(-49, -122)"
                d="M64.7551095,149 L76.7551095,149 L76.7551095,131 L64.7551095,131 L64.7551095,149 Z M61.7551095,147.269 L58.7551095,143.5775 L58.7551095,126.6065 L61.7551095,130.121 L61.7551095,147.269 Z M52.7551095,143 L55.7551095,143 L55.7551095,125 L52.7551095,125 L52.7551095,143 Z M63.8761095,128 L58.7551095,122 L49.7551095,122 L49.7551095,146 L56.8786095,146 L61.7551095,152 L79.7551095,152 L79.7551095,128 L63.8761095,128 Z"
            />
        </symbol>
        <symbol id="send" viewBox="0 0 31 31">
            <path
                stroke="none"
                fill-rule="evenodd"
                transform="translate(-49, -190)"
                d="M49.7551095,206.15211 L57.6196095,199.78761 L57.6196095,204.30261 L68.1196095,204.30261 L68.1196095,207.30261 L57.6196095,207.30261 L57.6196095,212.51661 L49.7551095,206.15211 Z M79.7551095,220.80261 L79.7551095,190.80261 L64.7551095,190.80261 L64.7551095,196.80261 L67.7551095,196.80261 L67.7551095,193.80261 L76.7551095,193.80261 L76.7551095,217.80261 L67.7551095,217.80261 L67.7551095,214.80261 L64.7551095,214.80261 L64.7551095,220.80261 L79.7551095,220.80261 Z"
            />
        </symbol>
        <symbol id="receive" viewBox="0 0 31 31">
            <path
                stroke="none"
                fill-rule="evenodd"
                transform="translate(-49, -259)"
                d="M62.1616095,274.437 L69.1681095,281.859 L71.3491095,279.816 L67.7071095,276 L79.7551095,276 L79.7551095,273 L67.7071095,273 L71.3491095,269.112 L69.1681095,267.09 L62.1616095,274.437 Z M64.7551095,289.5 L49.7551095,289.5 L49.7551095,259.5 L64.7551095,259.5 L64.7551095,265.5 L61.7551095,265.5 L61.7551095,262.5 L52.7551095,262.5 L52.7551095,286.5 L61.7551095,286.5 L61.7551095,283.5 L64.7551095,283.5 L64.7551095,289.5 Z"
            />
        </symbol>
        <symbol id="addressBook" viewBox="0 0 31 29">
            <path
                stroke="none"
                fill-rule="evenodd"
                transform="translate(-49, -327)"
                d="M76.7551095,348.958477 L66.2551095,352.4888 L66.2551095,335.459406 L66.2551095,335.197574 L76.7551095,331.667252 L76.7551095,348.958477 Z M63.2551095,335.459406 L63.2551095,352.4888 L52.7551095,348.958477 L52.7551095,331.667252 L63.2551095,335.197574 L63.2551095,335.459406 Z M64.7551095,332.664568 L49.7551095,327.5 L49.7551095,351.035484 L64.7551095,356 L79.7551095,351.035484 L79.7551095,327.5 L64.7551095,332.664568 Z"
            />
        </symbol>
        <symbol id="sideStakes" viewBox="0 0 31 28">
            <path
                stroke="none"
                fill-rule="evenodd"
                transform="translate(-49, -394)"
                d="M61.7551095,400.5 L67.7551095,400.5 L67.7551095,394.5 L61.7551095,394.5 L61.7551095,400.5 Z M61.7551095,421.5 L67.7551095,421.5 L67.7551095,415.5 L61.7551095,415.5 L61.7551095,421.5 Z M73.7551095,421.5 L79.7551095,421.5 L79.7551095,415.5 L73.7551095,415.5 L73.7551095,421.5 Z M49.7551095,421.5 L55.7551095,421.5 L55.7551095,415.5 L49.7551095,415.5 L49.7551095,421.5 Z M54.2551095,412.5 L51.2551095,412.5 L51.2551095,406.5 L63.2551095,406.5 L63.2551095,403.5 L66.2551095,403.5 L66.2551095,406.5 L78.2551095,406.5 L78.2551095,412.5 L75.2551095,412.5 L75.2551095,409.5 L66.2551095,409.5 L66.2551095,412.5 L63.2551095,412.5 L63.2551095,409.5 L54.2551095,409.5 L54.2551095,412.5 Z"
            />
        </symbol>
        <symbol id="transactions" viewBox="0 0 31 26">
            <path
                stroke="none"
                fill-rule="evenodd"
                transform="translate(-49, -459)"
                d="M70.7551095,482 L76.7551095,482 L76.7551095,462.5 L70.7551095,462.5 L70.7551095,482 Z M52.7551095,467 L67.7551095,467 L67.7551095,462.5 L52.7551095,462.5 L52.7551095,467 Z M52.7551095,474.5 L67.7551095,474.5 L67.7551095,470 L52.7551095,470 L52.7551095,474.5 Z M52.7551095,482 L67.7551095,482 L67.7551095,477.5 L52.7551095,477.5 L52.7551095,482 Z M49.7551095,485 L79.7551095,485 L79.7551095,459.5 L49.7551095,459.5 L49.7551095,485 Z"
            />
        </symbol>
        <symbol id="messages" viewBox="0 0 31 23">
            <path
                stroke="none"
                fill-rule="evenodd"
                transform="translate(-49, -523)"
                d="M76.7551095,526.9365 L64.7551095,537.477 L52.7551095,526.9215 L52.7551095,526.5 L76.7551095,526.5 L76.7551095,526.9365 Z M52.7551095,543 L52.7551095,530.9175 L64.7551095,541.47 L76.7551095,530.9295 L76.7551095,543 L52.7551095,543 Z M49.7551095,546 L79.7551095,546 L79.7551095,523.5 L49.7551095,523.5 L49.7551095,546 Z"
            />
        </symbol>
        <symbol id="settings" viewBox="0 0 31 31">
            <path
                stroke="none"
                fill-rule="evenodd"
                transform="translate(-49, -719)"
                d="M65.6271893,734.24021 C65.6271893,735.06821 64.9551893,735.74021 64.1271893,735.74021 C63.2991893,735.74021 62.6271893,735.06821 62.6271893,734.24021 C62.6271893,733.41221 63.2991893,732.74021 64.1271893,732.74021 C64.9551893,732.74021 65.6271893,733.41221 65.6271893,734.24021 M71.3571893,736.27721 C70.6926893,738.78071 68.6676893,740.80571 66.1641893,741.47021 C60.4641893,742.98221 55.3851893,737.90321 56.8971893,732.20321 C57.5616893,729.69971 59.5866893,727.67471 62.0901893,727.01021 C67.7901893,725.49821 72.8691893,730.57721 71.3571893,736.27721 M77.6271893,732.74021 L75.1431893,732.74021 C74.7816893,732.74021 74.2851893,732.71621 74.2881893,732.35471 C74.2956893,731.02121 73.8591893,729.12521 72.8961893,728.08721 C72.6501893,727.82171 72.7221893,727.57871 72.9771893,727.32371 L74.7336893,725.66171 C75.3201893,725.07521 75.3201893,724.17221 74.7336893,723.58721 C74.1486893,723.00071 73.1976893,723.02471 72.6126893,723.60971 L70.8561893,725.37821 C70.6011893,725.63321 70.2066893,725.66471 69.9051893,725.46671 C68.8101893,724.74371 67.5726893,724.22321 66.2421893,723.95171 C65.8881893,723.87821 65.6271893,723.58571 65.6271893,723.22421 L65.6271893,720.74021 C65.6271893,719.91221 64.9551893,719.24021 64.1271893,719.24021 C63.2991893,719.24021 62.6271893,719.91221 62.6271893,720.74021 L62.6271893,723.22421 C62.6271893,723.58571 62.3661893,723.88121 62.0121893,723.95471 C60.6816893,724.22621 59.4441893,724.74821 58.3491893,725.47121 C58.0476893,725.67071 57.6531893,725.64521 57.3981893,725.39021 L55.6416893,723.63371 C55.0566893,723.04721 54.1056893,723.04721 53.5206893,723.63371 C52.9341893,724.21871 52.9341893,725.16971 53.5206893,725.75471 L55.2771893,727.51121 C55.5321893,727.76621 55.5711893,728.16971 55.3581893,728.46221 C54.6171893,729.48671 54.1431893,730.58321 53.9301893,732.50021 C53.8896893,732.85871 53.4726893,732.74021 53.1111893,732.74021 L50.6271893,732.74021 C49.7991893,732.74021 49.1271893,733.41221 49.1271893,734.24021 C49.1271893,735.06821 49.7991893,735.74021 50.6271893,735.74021 L53.1111893,735.74021 C53.4726893,735.74021 53.9106893,735.87221 53.9826893,736.22471 C54.2541893,737.55521 54.6366893,738.54821 55.3581893,739.64321 C55.5576893,739.94471 55.5321893,740.52671 55.2771893,740.78171 L53.5206893,742.63121 C52.9341893,743.21771 52.9341893,744.21371 53.5206893,744.80021 C54.1056893,745.38521 55.0566893,745.40921 55.6416893,744.82271 L57.3981893,743.07821 C57.6531893,742.82321 58.0476893,742.80371 58.3491893,743.00321 C59.4441893,743.72471 60.6816893,744.25121 62.0121893,744.52271 C62.3661893,744.59621 62.6271893,744.89471 62.6271893,745.25621 L62.6271893,747.74021 C62.6271893,748.56821 63.2991893,749.24021 64.1271893,749.24021 C64.9551893,749.24021 65.6271893,748.56821 65.6271893,747.74021 L65.6271893,745.25621 C65.6271893,744.89471 65.8881893,744.59921 66.2421893,744.52571 C67.5726893,744.25421 68.8101893,743.73071 69.9051893,743.00921 C70.2066893,742.80971 70.6011893,742.83521 70.8561893,743.09021 L72.6126893,744.84671 C73.1976893,745.43321 74.1486893,745.43321 74.7336893,744.84671 C75.3201893,744.26171 75.3201893,743.31071 74.7336893,742.72571 L72.9771893,740.96921 C72.7221893,740.71421 72.6966893,740.31971 72.8961893,740.01821 C73.6176893,738.92321 74.0091893,738.31121 74.4126893,737.10521 C74.5281893,736.76321 74.7816893,735.74021 75.1431893,735.74021 L77.6271893,735.74021 C78.4551893,735.74021 79.1271893,735.06821 79.1271893,734.24021 C79.1271893,733.41221 78.4551893,732.74021 77.6271893,732.74021"
            />
        </symbol>
        <symbol id="search" viewBox="0 0 21 21">
            <path
                stroke="none"
                fill-rule="evenodd"
                transform="translate(-14, -13)"
                d="M34.2250257,32.4447099 L32.8110257,33.8587099 L28.5680257,29.6167099 L29.9820257,28.2017099 L34.2250257,32.4447099 Z M22.2250257,27.8587099 C18.9170257,27.8587099 16.2250257,25.1677099 16.2250257,21.8587099 C16.2250257,18.5507099 18.9170257,15.8587099 22.2250257,15.8587099 C25.5330257,15.8587099 28.2250257,18.5507099 28.2250257,21.8587099 C28.2250257,25.1677099 25.5330257,27.8587099 22.2250257,27.8587099 L22.2250257,27.8587099 Z M22.2250257,13.8587099 C17.8070257,13.8587099 14.2250257,17.4407099 14.2250257,21.8587099 C14.2250257,26.2767099 17.8070257,29.8587099 22.2250257,29.8587099 C26.6430257,29.8587099 30.2250257,26.2767099 30.2250257,21.8587099 C30.2250257,17.4407099 26.6430257,13.8587099 22.2250257,13.8587099 L22.2250257,13.8587099 Z"
            />
        </symbol>
        <symbol id="dashboard-deposit" viewBox="0 0 16 17">
            <path
                stroke="none"
                fill-rule="evenodd"
                transform="translate(7.792554, 8.588188) scale(1, -1) translate(-7.758648, -9.369562)"
                d="M15.1028385,10.8378597 C14.9744555,10.6937874 14.7940393,10.6066963 14.6013735,10.5957906 C14.4087077,10.584885 14.2196161,10.6510607 14.0757951,10.7797252 L8.48519105,15.7792949 L8.48519105,1.71073839 C8.48519105,1.30940321 8.1598446,0.984056756 7.75850942,0.984056756 C7.35717423,0.984056756 7.03182778,1.30940321 7.03182778,1.71073839 L7.03182778,15.7792949 L1.44122373,10.7797252 C1.24737537,10.6066463 0.975915584,10.5501316 0.729100662,10.6314698 C0.48228574,10.7128079 0.297612742,10.9196417 0.244646208,11.1740588 C0.191679674,11.4284759 0.278466482,11.6918242 0.472314877,11.8649031 L6.54737336,17.2907927 C7.23614783,17.9098258 8.28087101,17.9098258 8.96964548,17.2907927 L15.044704,11.8649031 C15.1887763,11.7365201 15.2758675,11.5561039 15.2867731,11.3634381 C15.2976787,11.1707724 15.231503,10.9816807 15.1028385,10.8378597 Z"
            />
        </symbol>
        <symbol id="dashboard-proof-of-stake" viewBox="0 0 19 21">
            <path
                stroke="none"
                fill-rule="evenodd"
                transform="translate(0.100117, -1.379895)"
                d="M4.98421417,11.6201052 L8.71421417,7.14410521 L8.71421417,11.6201052 L4.98421417,11.6201052 Z M10.7142142,11.6201052 L14.4442142,11.6201052 L10.7142142,16.0961052 L10.7142142,11.6201052 Z M18.7142142,9.62010521 L10.7142142,9.62010521 L10.7142142,1.62010521 L0.714214172,13.6201052 L8.71421417,13.6201052 L8.71421417,21.6201052 L18.7142142,9.62010521 Z"
            />
        </symbol>
        <symbol id="dashboard-rain-cloud" viewBox="0 0 21 21">
            <path
                stroke="none"
                fill-rule="evenodd"
                transform="translate(0.004186, -1.379895)"
                d="M7.49935857,18.4969178 L7.49935857,20.4989726 C7.49935857,21.0515397 7.0515296,21.5 6.49974034,21.5 C5.94795107,21.5 5.5001221,21.0515397 5.5001221,20.4989726 L5.5001221,18.4969178 C5.5001221,17.9443507 5.94795107,17.4958904 6.49974034,17.4958904 C7.0515296,17.4958904 7.49935857,17.9443507 7.49935857,18.4969178 M15.4963044,18.4969178 L15.4963044,20.4989726 C15.4963044,21.0515397 15.0484755,21.5 14.4966862,21.5 C13.9448969,21.5 13.497068,21.0515397 13.497068,20.4989726 L13.497068,18.4969178 C13.497068,17.9443507 13.9448969,17.4958904 14.4966862,17.4958904 C15.0484755,17.4958904 15.4963044,17.9443507 15.4963044,18.4969178 M11.4978315,18.4969178 L11.4978315,20.4989726 C11.4978315,21.0515397 11.0500025,21.5 10.4982133,21.5 C9.946424,21.5 9.49859504,21.0515397 9.49859504,20.4989726 L9.49859504,18.4969178 C9.49859504,17.9443507 9.946424,17.4958904 10.4982133,17.4958904 C11.0500025,17.4958904 11.4978315,17.9443507 11.4978315,18.4969178 M15.4283304,13.4917808 L15.4093376,13.4917808 L15.3903449,13.4917808 L4.6174592,13.4917808 C4.13264436,13.4917808 3.66282379,13.3326174 3.28996619,13.0553328 C1.18876866,11.491728 3.64283143,8.26241361 5.73703162,9.92912423 C3.67681845,3.13415021 14.0618523,0.874831362 15.3963426,7.49562661 C15.4133361,7.49562661 15.42933,7.49262353 15.4463235,7.49062148 C15.4623174,7.48761839 15.4793109,7.48561634 15.4963044,7.48561634 C16.8617829,7.48561634 18.0183412,8.43959546 18.3762046,9.65984786 C18.9289934,11.5447825 17.5505199,13.4917808 15.4283304,13.4917808 M19.6047354,7.65378894 C18.9679786,6.74185298 18.0323359,6.05314612 16.9417524,5.72080503 C16.9357547,5.719804 16.9317562,5.71680092 16.9277577,5.71379783 C16.9237593,5.70979372 16.9207604,5.70578962 16.9187612,5.70078448 C14.1038362,-0.794882348 4.47051532,0.55950773 3.5648612,7.582716 C3.56386159,7.59072422 3.56086273,7.59773141 3.55586464,7.60273655 C3.55086655,7.60874271 3.54386922,7.61274682 3.53687189,7.61474888 C0.414064534,8.39254717 -0.615542246,12.4256866 1.95147738,14.5188349 C2.70418991,15.1334657 3.6798173,15.4938356 4.70142714,15.4938356 L15.2663922,15.4938356 C19.4837816,15.4938356 21.9208508,10.9701927 19.6047354,7.65378894"
            />
        </symbol>
        <symbol id="dashboard-received" viewBox="0 0 21 21">
            <path
                stroke="none"
                fill-rule="evenodd"
                transform="translate(0.004186, -1.379895)"
                d="M14.94,8.892 L13.592,7.438 L11,9.866 L11,1.5 L9,1.5 L9,9.866 L6.456,7.438 L5.094,8.892 L10.042,13.563 L14.94,8.892 Z M20,21.5 L0,21.5 L0,11.5 L4,11.5 L4,13.5 L2,13.5 L2,19.5 L18,19.5 L18,13.5 L16,13.5 L16,11.5 L20,11.5 L20,21.5 Z"
            />
        </symbol>
        <symbol id="dashboard-sent" viewBox="0 0 21 21">
            <path
                stroke="none"
                fill-rule="evenodd"
                transform="translate(0.004186, -1.379895)"
                d="M14.94,6.171 L13.592,7.625 L11,5.197 L11,13.563 L9,13.563 L9,5.197 L6.456,7.625 L5.094,6.171 L10.042,1.5 L14.94,6.171 Z M20,21.5 L0,21.5 L0,11.5 L4,11.5 L4,13.5 L2,13.5 L2,19.5 L18,19.5 L18,13.5 L16,13.5 L16,11.5 L20,11.5 L20,21.5 Z"
            />
        </symbol>
        <symbol id="dashboard-withdraw" viewBox="0 0 16 18">
            <path
                stroke="none"
                fill-rule="evenodd"
                transform="translate(8.394962, 9.218626) scale(1, -1) translate(-23.400388, -23.989148) translate(22.961525, 24.35871) scale(1, -1) translate(-7.561137, -9.369562)"
                d="M14.9053274,10.8378597 C14.7769444,10.6937874 14.5965282,10.6066963 14.4038624,10.5957906 C14.2111967,10.584885 14.022105,10.6510607 13.8782841,10.7797252 L8.28767999,15.7792949 L8.28767999,1.71073839 C8.28767999,1.30940321 7.96233354,0.984056756 7.56099836,0.984056756 C7.15966317,0.984056756 6.83431672,1.30940321 6.83431672,1.71073839 L6.83431672,15.7792949 L1.24371267,10.7797252 C1.04986431,10.6066463 0.778404525,10.5501316 0.531589602,10.6314698 C0.28477468,10.7128079 0.100101682,10.9196417 0.0471351488,11.1740588 C-0.00583138495,11.4284759 0.080955423,11.6918242 0.274803818,11.8649031 L6.3498623,17.2907927 C7.03863677,17.9098258 8.08335995,17.9098258 8.77213442,17.2907927 L14.8471929,11.8649031 C14.9912652,11.7365201 15.0783564,11.5561039 15.089262,11.3634381 C15.1001676,11.1707724 15.033992,10.9816807 14.9053274,10.8378597 Z"
            />
        </symbol>
        <symbol id="send-address-book" viewBox="0 0 22 22">
            <path
                stroke="none"
                fill-rule="evenodd"
                transform="translate(-11.069442, -11.090017)"
                d="M30.8030968,30.8624339 L30.7625511,30.8624339 C30.9291171,27.6812421 28.9303249,24.034323 25.3184724,22.5582413 C25.974874,21.7922568 26.3858099,20.7950524 26.3858099,19.7079899 C26.3858099,17.2862077 24.42318,15.3170029 22.0024937,15.3170029 C19.5818073,15.3170029 17.6191774,17.2763453 17.6191774,19.6970316 C17.6191774,20.7851899 18.0377841,21.7659569 18.6941857,22.5319414 C15.6072353,23.7921448 13.2698319,26.7552666 13.2698319,30.2586321 L13.2698319,13.329169 L30.8030968,13.329169 L30.8030968,30.8624339 Z M19.8108355,19.6937442 C19.8108355,18.4850447 20.7937942,17.5020861 22.0024937,17.5020861 C23.2111931,17.5020861 24.1941518,18.4850447 24.1941518,19.6937442 C24.1941518,20.8860062 23.2353013,21.8558149 22.0485185,21.881019 C22.0331769,21.881019 22.0178353,21.8788273 22.0024937,21.8788273 C21.9860562,21.8788273 21.9718104,21.881019 21.955373,21.881019 C20.769686,21.8558149 19.8108355,20.8860062 19.8108355,19.6937442 L19.8108355,19.6937442 Z M28.570893,30.8624339 L15.4340943,30.8624339 C15.4329985,30.8624339 15.4275193,30.7364135 15.4275193,30.6914845 C15.4275193,27.2275689 18.160517,24.1450018 22.0485185,24.079252 C25.6527002,24.1044561 28.577468,27.0818236 28.577468,30.6914845 C28.577468,30.7364135 28.5719888,30.8624339 28.570893,30.8624339 L28.570893,30.8624339 Z M11.0781738,33.054092 L32.9947549,33.054092 L32.9947549,11.1375109 L11.0781738,11.1375109 L11.0781738,33.054092 Z"
            />
        </symbol>
        <symbol id="send-copy" viewBox="0 0 16 22">
            <path
                stroke="none"
                fill-rule="evenodd"
                transform="translate(-13.716321, -11.090017)"
                d="M27.3957263,30.8624339 L16.4374358,30.8624339 L16.4374358,15.5208271 L17.5332649,15.5208271 L17.5332649,17.7124852 L26.2998973,17.7124852 L26.2998973,15.5208271 L27.3957263,15.5208271 L27.3957263,30.8624339 Z M19.724923,15.5208271 L24.1082392,15.5208271 L24.1082392,13.329169 L19.724923,13.329169 L19.724923,15.5208271 Z M26.2998973,13.329169 L26.2998973,11.1375109 L17.5332649,11.1375109 L17.5332649,13.329169 L14.2457777,13.329169 L14.2457777,33.054092 L29.5873845,33.054092 L29.5873845,13.329169 L26.2998973,13.329169 Z"
            />
        </symbol>
        <symbol id="receive-copy-address" viewBox="0 0 21 21">
            <path
                stroke="none"
                fill-rule="evenodd"
                transform="translate(-15, -15.322812)"
                d="M15.9268761,26.4289486 L35.9268761,26.4289486 L35.9268761,24.4289486 L15.9268761,24.4289486 L15.9268761,26.4289486 Z M19.9268761,33.4289486 L31.9268761,33.4289486 L31.9268761,30.4289486 L19.9268761,30.4289486 L19.9268761,33.4289486 Z M19.9268761,28.4289486 L17.9268761,28.4289486 L17.9268761,30.4289486 L17.9268761,33.4289486 L17.9268761,35.4289486 L19.9268761,35.4289486 L31.9268761,35.4289486 L33.9268761,35.4289486 L33.9268761,33.4289486 L33.9268761,30.4289486 L33.9268761,28.4289486 L31.9268761,28.4289486 L19.9268761,28.4289486 Z M19.9268761,20.4289486 L31.9268761,20.4289486 L31.9268761,17.4289486 L19.9268761,17.4289486 L19.9268761,20.4289486 Z M31.9268761,22.4289486 L33.9268761,22.4289486 L33.9268761,20.4289486 L33.9268761,17.4289486 L33.9268761,15.4289486 L31.9268761,15.4289486 L19.9268761,15.4289486 L17.9268761,15.4289486 L17.9268761,17.4289486 L17.9268761,20.4289486 L17.9268761,22.4289486 L19.9268761,22.4289486 L31.9268761,22.4289486 Z"
            />
        </symbol>
        <symbol id="receive-new-address" viewBox="0 0 21 21">
            <path
                stroke="none"
                fill-rule="evenodd"
                transform="translate(-15, -16)"
                d="M33.5850263,17.4289486 L33.5850263,15.4289486 L31.5850263,15.4289486 L31.5850263,17.4289486 L29.5850263,17.4289486 L29.5850263,19.4289486 L31.5850263,19.4289486 L31.5850263,21.4289486 L33.5850263,21.4289486 L33.5850263,19.4289486 L35.5850263,19.4289486 L35.5850263,17.4289486 L33.5850263,17.4289486 Z M31.5850263,23.4289486 L33.5850263,23.4289486 L33.5850263,35.4289486 L15.5850263,35.4289486 L15.5850263,17.4289486 L27.5850263,17.4289486 L27.5850263,19.4289486 L17.5850263,19.4289486 L17.5850263,33.4289486 L31.5850263,33.4289486 L31.5850263,23.4289486 Z"
            />
        </symbol>
        <symbol id="receive-qr-code" viewBox="0 0 21 21">
            <g
                stroke="none"
                fill-rule="evenodd"
                transform="translate(0.268726, 0.177188)"
            >
                <path d="M0,19.9995522 L9.09074627,19.9995522 L9.09074627,10.9087065 L0,10.9087065 L0,19.9995522 Z M1.81800995,12.7270149 L7.27253731,12.7270149 L7.27253731,18.1674129 L1.81800995,18.1674129 L1.81800995,12.7270149 Z" />
                <polygon points="3.63626866 14.5450249 5.45437811 14.5450249 5.45437811 16.3633831 3.63626866 16.3633831" />
                <polygon points="14.5448756 18.1815423 16.3634328 18.1815423 16.3634328 19.9997015 14.5448756 19.9997015" />
                <polygon points="18.181194 18.1815423 19.9997015 18.1815423 19.9997015 19.9997015 18.181194 19.9997015" />
                <polygon points="18.181393 12.7270149 16.3633831 12.7270149 16.3633831 10.9087065 10.9087065 10.9087065 10.9087065 19.9995522 12.7270149 19.9995522 12.7270149 14.5450249 14.5448756 14.5450249 14.5448756 16.3633831 19.9995522 16.3633831 19.9995522 10.9087065 19.9995522 10.9087065 18.181393 10.9087065" />
                <path d="M0,9.09094527 L9.09074627,9.09094527 L9.09074627,0 L0,0 L0,9.09094527 Z M1.81800995,1.81800995 L7.27253731,1.81800995 L7.27253731,7.27253731 L1.81800995,7.27253731 L1.81800995,1.81800995 Z" />
                <rect x="3.63626866" y="3.63626866" width="1.81810945" height="1.81825871" />
                <path d="M10.9087065,0 L10.9087065,9.09094527 L19.9997015,9.09094527 L19.9997015,0 L10.9087065,0 Z M18.181393,7.27253731 L12.7270149,7.27253731 L12.7270149,1.81800995 L18.181393,1.81800995 L18.181393,7.27253731 Z" />
                <rect x="14.5448756" y="3.63626866" width="1.81855721" height="1.81825871" />
            </g>
        </symbol>
        <symbol id="receive-sign-message" viewBox="0 0 19 21">
            <path
                stroke="none"
                fill-rule="evenodd"
                transform="translate(-16, -15.322812)"
                d="M32.6105757,17.4289486 L34.6105757,17.4289486 L34.6105757,15.4289486 L32.6105757,15.4289486 L32.6105757,17.4289486 Z M32.6105757,35.4289486 L34.6105757,35.4289486 L34.6105757,19.4289486 L32.6105757,19.4289486 L32.6105757,35.4289486 Z M20.6105757,33.4289486 L28.6105757,33.4289486 L28.6105757,17.4289486 L20.6105757,17.4289486 L20.6105757,33.4289486 Z M18.6105757,19.4289486 L16.6105757,19.4289486 L16.6105757,21.4289486 L18.6105757,21.4289486 L18.6105757,23.4289486 L16.6105757,23.4289486 L16.6105757,25.4289486 L18.6105757,25.4289486 L18.6105757,27.4289486 L16.6105757,27.4289486 L16.6105757,29.4289486 L18.6105757,29.4289486 L18.6105757,31.4289486 L16.6105757,31.4289486 L16.6105757,33.4289486 L18.6105757,33.4289486 L18.6105757,35.4289486 L30.6105757,35.4289486 L30.6105757,15.4289486 L18.6105757,15.4289486 L18.6105757,19.4289486 Z"
            />
        </symbol>
        <symbol id="receive-verify-message" viewBox="0 0 21 21">
            <path
                stroke="none"
                fill-rule="evenodd"
                transform="translate(-15, -15.322812)"
                d="M25.7304254,29.9409486 C25.7304254,30.4929486 25.2824254,30.9409486 24.7304254,30.9409486 C24.1784254,30.9409486 23.7304254,30.4929486 23.7304254,29.9409486 C23.7304254,29.3889486 24.1784254,28.9409486 24.7304254,28.9409486 C25.2824254,28.9409486 25.7304254,29.3889486 25.7304254,29.9409486 L25.7304254,29.9409486 Z M21.7304254,20.4289486 C21.7304254,19.8769486 22.1784254,19.4289486 22.7304254,19.4289486 L28.4404254,19.4289486 C29.2754254,19.4289486 29.9524254,20.1059486 29.9524254,20.9409486 L29.9524254,23.4289486 C29.9524254,24.5289486 29.0524254,25.4289486 27.9524254,25.4289486 L26.4614254,25.4289486 C26.1804254,25.4289486 25.9524254,25.6569486 25.9524254,25.9379486 L25.9524254,26.9409486 C25.9524254,27.4929486 25.5054254,27.9409486 24.9524254,27.9409486 C24.4004254,27.9409486 23.9524254,27.4929486 23.9524254,26.9409486 L23.9524254,25.2069486 C23.9524254,24.2249486 24.7484254,23.4289486 25.7304254,23.4289486 L26.7304254,23.4289486 C27.2824254,23.4289486 27.7304254,22.9809486 27.7304254,22.4289486 C27.7304254,21.8769486 27.2824254,21.4289486 26.7304254,21.4289486 L22.7304254,21.4289486 C22.1784254,21.4289486 21.7304254,20.9809486 21.7304254,20.4289486 L21.7304254,20.4289486 Z M17.9524254,33.4289486 L33.9524254,33.4289486 L33.9524254,17.4289486 L17.9524254,17.4289486 L17.9524254,33.4289486 Z M15.9524254,35.4289486 L35.9524254,35.4289486 L35.9524254,15.4289486 L15.9524254,15.4289486 L15.9524254,35.4289486 Z"
            />
        </symbol>
        <symbol id="address-book-copy-address" viewBox="0 0 21 21">
            <path
                stroke="none"
                fill-rule="evenodd"
                transform="translate(-15, -15)"
                d="M15.9268761,26.4289486 L35.9268761,26.4289486 L35.9268761,24.4289486 L15.9268761,24.4289486 L15.9268761,26.4289486 Z M19.9268761,33.4289486 L31.9268761,33.4289486 L31.9268761,30.4289486 L19.9268761,30.4289486 L19.9268761,33.4289486 Z M19.9268761,28.4289486 L17.9268761,28.4289486 L17.9268761,30.4289486 L17.9268761,33.4289486 L17.9268761,35.4289486 L19.9268761,35.4289486 L31.9268761,35.4289486 L33.9268761,35.4289486 L33.9268761,33.4289486 L33.9268761,30.4289486 L33.9268761,28.4289486 L31.9268761,28.4289486 L19.9268761,28.4289486 Z M19.9268761,20.4289486 L31.9268761,20.4289486 L31.9268761,17.4289486 L19.9268761,17.4289486 L19.9268761,20.4289486 Z M31.9268761,22.4289486 L33.9268761,22.4289486 L33.9268761,20.4289486 L33.9268761,17.4289486 L33.9268761,15.4289486 L31.9268761,15.4289486 L19.9268761,15.4289486 L17.9268761,15.4289486 L17.9268761,17.4289486 L17.9268761,20.4289486 L17.9268761,22.4289486 L19.9268761,22.4289486 L31.9268761,22.4289486 Z"
            />
        </symbol>
        <symbol id="address-book-delete-entry" viewBox="0 0 21 18">
            <path
                stroke="none"
                fill-rule="evenodd"
                transform="translate(-15, -17)"
                d="M27.5,19 L35.5,19 L35.5,17 L27.5,17 L27.5,19 Z M17.812,32 C18.603,29.633 20.83,27.92 23.458,27.902 C23.472,27.902 23.485,27.906 23.5,27.906 C23.515,27.906 23.528,27.902 23.542,27.902 C26.171,27.92 28.399,29.632 29.19,32 L17.812,32 Z M23.5,21.906 C24.603,21.906 25.5,22.803 25.5,23.906 C25.5,24.995 24.625,25.879 23.542,25.902 C23.528,25.902 23.514,25.9 23.5,25.9 C23.486,25.9 23.472,25.902 23.458,25.902 C22.375,25.879 21.5,24.995 21.5,23.906 C21.5,22.803 22.397,21.906 23.5,21.906 L23.5,21.906 Z M26.526,26.495 C27.125,25.796 27.5,24.899 27.5,23.906 C27.5,21.697 25.709,19.906 23.5,19.906 C21.291,19.906 19.5,21.697 19.5,23.906 C19.5,24.899 19.875,25.796 20.474,26.495 C17.557,27.686 15.5,30.543 15.5,33.89 C15.5,33.93 15.505,34 15.506,34 L31.494,34 C31.494,34 31.5,33.934 31.5,33.893 C31.5,30.547 29.443,27.687 26.526,26.495 L26.526,26.495 Z"
            />
        </symbol>
        <symbol id="address-book-new-entry" viewBox="0 0 21 20">
            <path
                stroke="none"
                fill-rule="evenodd"
                transform="translate(-15, -16)"
                d="M35.5,18.5 L35.5,20.5 L32.5,20.5 L32.5,23.5 L30.5,23.5 L30.5,20.5 L27.5,20.5 L27.5,18.5 L30.5,18.5 L30.5,15.5 L32.5,15.5 L32.5,18.5 L35.5,18.5 Z M17.812,33.5 C18.603,31.133 20.83,29.42 23.458,29.402 C23.472,29.402 23.485,29.406 23.5,29.406 C23.515,29.406 23.528,29.402 23.542,29.402 C26.171,29.42 28.399,31.132 29.19,33.5 L17.812,33.5 Z M23.5,23.406 C24.603,23.406 25.5,24.303 25.5,25.406 C25.5,26.495 24.625,27.379 23.542,27.402 C23.528,27.402 23.514,27.4 23.5,27.4 C23.486,27.4 23.472,27.402 23.458,27.402 C22.375,27.379 21.5,26.495 21.5,25.406 C21.5,24.303 22.397,23.406 23.5,23.406 L23.5,23.406 Z M26.526,27.995 C27.125,27.296 27.5,26.399 27.5,25.406 C27.5,23.197 25.709,21.406 23.5,21.406 C21.291,21.406 19.5,23.197 19.5,25.406 C19.5,26.399 19.875,27.296 20.474,27.995 C17.557,29.186 15.5,32.043 15.5,35.39 C15.5,35.43 15.524,35.5 15.524,35.5 L31.494,35.5 C31.716,33.066 30.064,29.441 26.526,27.995 L26.526,27.995 Z"
            />
        </symbol>
        <symbol id="address-book-qr-code" viewBox="0 0 21 20">
            <g
                stroke="none"
                fill-rule="evenodd"
                transform="translate(0.268726, -0.5)"
            >
                <path d="M0,19.9995522 L9.09074627,19.9995522 L9.09074627,10.9087065 L0,10.9087065 L0,19.9995522 Z M1.81800995,12.7270149 L7.27253731,12.7270149 L7.27253731,18.1674129 L1.81800995,18.1674129 L1.81800995,12.7270149 Z" />
                <polygon points="3.63626866 14.5450249 5.45437811 14.5450249 5.45437811 16.3633831 3.63626866 16.3633831" />
                <polygon points="14.5448756 18.1815423 16.3634328 18.1815423 16.3634328 19.9997015 14.5448756 19.9997015" />
                <polygon points="18.181194 18.1815423 19.9997015 18.1815423 19.9997015 19.9997015 18.181194 19.9997015" />
                <polygon points="18.181393 12.7270149 16.3633831 12.7270149 16.3633831 10.9087065 10.9087065 10.9087065 10.9087065 19.9995522 12.7270149 19.9995522 12.7270149 14.5450249 14.5448756 14.5450249 14.5448756 16.3633831 19.9995522 16.3633831 19.9995522 10.9087065 19.9995522 10.9087065 18.181393 10.9087065" />
                <path d="M0,9.09094527 L9.09074627,9.09094527 L9.09074627,0 L0,0 L0,9.09094527 Z M1.81800995,1.81800995 L7.27253731,1.81800995 L7.27253731,7.27253731 L1.81800995,7.27253731 L1.81800995,1.81800995 Z" />
                <rect x="3.63626866" y="3.63626866" width="1.81810945" height="1.81825871" />
                <path d="M10.9087065,0 L10.9087065,9.09094527 L19.9997015,9.09094527 L19.9997015,0 L10.9087065,0 Z M18.181393,7.27253731 L12.7270149,7.27253731 L12.7270149,1.81800995 L18.181393,1.81800995 L18.181393,7.27253731 Z" />
                <rect x="14.5448756" y="3.63626866" width="1.81855721" height="1.81825871" />
            </g>
        </symbol>
        <symbol id="address-book-verify-message" viewBox="0 0 21 21">
            <path
                stroke="none"
                fill-rule="evenodd"
                transform="translate(-15, -15)"
                d="M25.7304254,29.9409486 C25.7304254,30.4929486 25.2824254,30.9409486 24.7304254,30.9409486 C24.1784254,30.9409486 23.7304254,30.4929486 23.7304254,29.9409486 C23.7304254,29.3889486 24.1784254,28.9409486 24.7304254,28.9409486 C25.2824254,28.9409486 25.7304254,29.3889486 25.7304254,29.9409486 L25.7304254,29.9409486 Z M21.7304254,20.4289486 C21.7304254,19.8769486 22.1784254,19.4289486 22.7304254,19.4289486 L28.4404254,19.4289486 C29.2754254,19.4289486 29.9524254,20.1059486 29.9524254,20.9409486 L29.9524254,23.4289486 C29.9524254,24.5289486 29.0524254,25.4289486 27.9524254,25.4289486 L26.4614254,25.4289486 C26.1804254,25.4289486 25.9524254,25.6569486 25.9524254,25.9379486 L25.9524254,26.9409486 C25.9524254,27.4929486 25.5054254,27.9409486 24.9524254,27.9409486 C24.4004254,27.9409486 23.9524254,27.4929486 23.9524254,26.9409486 L23.9524254,25.2069486 C23.9524254,24.2249486 24.7484254,23.4289486 25.7304254,23.4289486 L26.7304254,23.4289486 C27.2824254,23.4289486 27.7304254,22.9809486 27.7304254,22.4289486 C27.7304254,21.8769486 27.2824254,21.4289486 26.7304254,21.4289486 L22.7304254,21.4289486 C22.1784254,21.4289486 21.7304254,20.9809486 21.7304254,20.4289486 L21.7304254,20.4289486 Z M17.9524254,33.4289486 L33.9524254,33.4289486 L33.9524254,17.4289486 L17.9524254,17.4289486 L17.9524254,33.4289486 Z M15.9524254,35.4289486 L35.9524254,35.4289486 L35.9524254,15.4289486 L15.9524254,15.4289486 L15.9524254,35.4289486 Z"
            />
        </symbol>
    </defs>
</svg>
