<svg version="1.1" xmlns="http://www.w3.org/2000/svg">
    <defs>
        <symbol id="dashboard" viewBox="0 0 30.71 25.59">
            <path d="M28.15,3.84h-6.4V2.56A2.56,2.56,0,0,0,19.19,0H11.52A2.56,2.56,0,0,0,9,2.56V3.84H2.56A2.56,2.56,0,0,0,0,6.4V23a2.56,2.56,0,0,0,2.56,2.56H28.15A2.56,2.56,0,0,0,30.71,23V6.4A2.56,2.56,0,0,0,28.15,3.84ZM10.24,2.56a1.28,1.28,0,0,1,1.28-1.28h7.67a1.28,1.28,0,0,1,1.28,1.28V3.84H10.24ZM29.43,23a1.28,1.28,0,0,1-1.28,1.28H2.56A1.28,1.28,0,0,1,1.28,23V13.72a2.54,2.54,0,0,0,1.28.36H12.8V16a.64.64,0,0,0,.64.64h3.84a.64.64,0,0,0,.64-.64V14.08H28.15a2.54,2.54,0,0,0,1.28-.36V23ZM14.08,15.36V12.8h2.56v2.56Zm15.35-3.84a1.28,1.28,0,0,1-1.28,1.28H17.92v-.64a.64.64,0,0,0-.64-.64H13.44a.63.63,0,0,0-.64.64v.64H2.56a1.28,1.28,0,0,1-1.28-1.28V6.4A1.28,1.28,0,0,1,2.56,5.12H28.15A1.28,1.28,0,0,1,29.43,6.4Z" />
        </symbol>
        <symbol id="send" viewBox="0 0 29.42 25.86">
            <path d="M28.67,17.75a.76.76,0,0,0-.75.75v2.86a3,3,0,0,1-3,3H4.49a3,3,0,0,1-3-3V18.5a.76.76,0,0,0-.75-.75A.76.76,0,0,0,0,18.5v2.86a4.5,4.5,0,0,0,4.49,4.5H24.93a4.5,4.5,0,0,0,4.49-4.5V18.5A.75.75,0,0,0,28.67,17.75Z" />
            <path d="M5.3,22.2H24.12a.75.75,0,0,0,0-1.5H5.3a.75.75,0,0,0,0,1.5Z" />
            <path d="M22.23,6.08,16,.48a1.87,1.87,0,0,0-2.5,0L7.19,6.08a.75.75,0,0,0-.06,1.06.76.76,0,0,0,1.06.06L14,2V16.56a.75.75,0,0,0,1.5,0V2L21.23,7.2a.75.75,0,0,0,.5.19.77.77,0,0,0,.56-.25A.75.75,0,0,0,22.23,6.08Z" />
        </symbol>
        <symbol id="receive" viewBox="0 0 29.42 25.86">
            <path d="M28.67,17.75a.76.76,0,0,0-.75.75v2.86a3,3,0,0,1-3,3H4.49a3,3,0,0,1-3-3V18.5a.76.76,0,0,0-.75-.75A.76.76,0,0,0,0,18.5v2.86a4.5,4.5,0,0,0,4.49,4.5H24.93a4.5,4.5,0,0,0,4.49-4.5V18.5A.75.75,0,0,0,28.67,17.75Z" />
            <path d="M24.12,20.7H5.3a.75.75,0,0,0,0,1.5H24.12a.75.75,0,0,0,0-1.5Z" />
            <path d="M22.29,10.17a.75.75,0,0,0-1.06-.06l-5.77,5.15V.75a.75.75,0,0,0-1.5,0V15.26L8.19,10.11a.75.75,0,0,0-1.06.06.73.73,0,0,0,.06,1.05l6.27,5.61a1.9,1.9,0,0,0,2.5,0l6.27-5.61A.73.73,0,0,0,22.29,10.17Z" />
        </symbol>
        <symbol id="addressBook" viewBox="0 0 25.55 25.72">
            <path d="M14.84,12.55H12.05c-3.52,0-3.88,5.18-3.56,5.51a7.86,7.86,0,0,0,5,1.39,7.55,7.55,0,0,0,4.82-1.31C18.63,17.86,18.36,12.55,14.84,12.55Zm2.69,4.82a6.69,6.69,0,0,1-4.05,1,6.78,6.78,0,0,1-4.06-1c-.05-.16.26-3.78,2.69-3.78H14.9c2.41,0,2.69,3.61,2.63,3.78Z" />
            <path d="M13.42,12.22a2.91,2.91,0,0,0,3-3,3,3,0,1,0-3,3Zm0-4.82a1.86,1.86,0,0,1,1.92,1.86A1.92,1.92,0,1,1,13.42,7.4Z" />
            <path d="M21.91,0H4.55A2.34,2.34,0,0,0,2.19,2.36V7.18H0V8.27H2.19v4.05H0v1.1H2.19v4H0v1.1H2.19v4.82a2.34,2.34,0,0,0,2.36,2.35H21.86a2.42,2.42,0,0,0,2.41-2.35v-21A2.34,2.34,0,0,0,21.91,0Zm1.26,23.4a1.26,1.26,0,0,1-1.25,1.25H4.55A1.27,1.27,0,0,1,3.29,23.4V18.58H5.38v-1.1H3.29V13.43H5.37v-1.1H3.29V8.28H5.37V7.19H3.29V2.36A1.27,1.27,0,0,1,4.55,1.1H21.91a1.27,1.27,0,0,1,1.26,1.26v21Z" />
        </symbol>
        <symbol id="sideStakes" viewBox="0 0 25.72 25.72">
            <path d="M12.86,16.42a3.56,3.56,0,1,1,3.56-3.56A3.56,3.56,0,0,1,12.86,16.42Zm0-6.17a2.61,2.61,0,1,0,2.61,2.61A2.61,2.61,0,0,0,12.86,10.25Z" />
            <path d="M12.86,7.21a.49.49,0,0,0,.48-.48V1.62L14.4,2.68a.44.44,0,0,0,.33.15A.49.49,0,0,0,15.07,2L13.19.14a.46.46,0,0,0-.67,0L10.65,2a.47.47,0,1,0,.67.67l1.06-1.06V6.73A.48.48,0,0,0,12.86,7.21Z" />
            <path d="M10.65,23.7l1.87,1.88a.51.51,0,0,0,.34.14.47.47,0,0,0,.33-.14l1.88-1.88A.47.47,0,0,0,14.4,23l-1.06,1.06V19a.48.48,0,0,0-1,0v5.11L11.32,23a.48.48,0,0,0-.67,0A.47.47,0,0,0,10.65,23.7Z" />
            <path d="M2,15.07a.51.51,0,0,0,.34.14.47.47,0,0,0,.33-.14.46.46,0,0,0,0-.67L1.62,13.34H6.73a.48.48,0,0,0,0-1H1.62l1.06-1.06A.47.47,0,1,0,2,10.65L.14,12.52a.46.46,0,0,0,0,.67Z" />
            <path d="M18.51,12.86a.48.48,0,0,0,.47.48h5.11L23,14.4a.48.48,0,0,0,0,.67.51.51,0,0,0,.34.14.47.47,0,0,0,.33-.14l1.88-1.88a.48.48,0,0,0,0-.67L23.7,10.65a.46.46,0,0,0-.67,0,.48.48,0,0,0,0,.67l1.06,1.06H19A.48.48,0,0,0,18.51,12.86Z" />
            <path d="M7.23,4.1a.49.49,0,0,0-.48-.48H4.1a.49.49,0,0,0-.48.48V6.75a.48.48,0,0,0,1,0V5.25L8.19,8.86A.47.47,0,0,0,8.53,9a.43.43,0,0,0,.33-.14.47.47,0,0,0,0-.67L5.25,4.58h1.5A.49.49,0,0,0,7.23,4.1Z" />
            <path d="M16.85,17.52l3.61,3.62H19a.48.48,0,0,0,0,.95h2.65a.47.47,0,0,0,.48-.48V19a.48.48,0,0,0-.95,0v1.5l-3.62-3.61a.48.48,0,0,0-.67,0A.46.46,0,0,0,16.85,17.52Z" />
            <path d="M4.1,18.49a.48.48,0,0,0-.48.47v2.65a.48.48,0,0,0,.48.48H6.75a.48.48,0,1,0,0-.95H5.25l3.61-3.62a.46.46,0,0,0,0-.67.48.48,0,0,0-.67,0L4.58,20.46V19A.48.48,0,0,0,4.1,18.49Z" />
            <path d="M16.85,8.86a.47.47,0,0,0,.34.14.43.43,0,0,0,.33-.14l3.62-3.61v1.5a.48.48,0,1,0,.95,0V4.1a.48.48,0,0,0-.48-.48H19a.48.48,0,0,0,0,1h1.5L16.85,8.19A.46.46,0,0,0,16.85,8.86Z" />
        </symbol>
        <symbol id="transactions" viewBox="0 0 25.55 25.72">
            <path d="M25.4,18.74a.53.53,0,0,0-.74,0l-5.19,5.19V.52a.53.53,0,0,0-1,0V23.93l-5.19-5.19a.52.52,0,1,0-.74.74l6.08,6.09a.55.55,0,0,0,.37.15.51.51,0,0,0,.37-.15l6.09-6.09A.53.53,0,0,0,25.4,18.74Z" />
            <path d="M.52,1.05H16.24a.52.52,0,0,0,.52-.53A.52.52,0,0,0,16.24,0H.52A.52.52,0,0,0,0,.52.52.52,0,0,0,.52,1.05Z" />
            <path d="M.52,7.17H16.24a.52.52,0,1,0,0-1H.52a.52.52,0,1,0,0,1Z" />
            <path d="M.52,13.3H16.24a.53.53,0,0,0,0-1.05H.52a.53.53,0,0,0,0,1.05Z" />
            <path d="M10.77,18.38H.52A.52.52,0,0,0,0,18.9a.52.52,0,0,0,.52.53H10.77a.52.52,0,0,0,.52-.53A.52.52,0,0,0,10.77,18.38Z" />
            <path d="M10.77,24.5H.52A.52.52,0,0,0,0,25a.52.52,0,0,0,.52.52H10.77a.52.52,0,0,0,.52-.52A.52.52,0,0,0,10.77,24.5Z" />
        </symbol>
        <symbol id="messages" viewBox="0 0 30.33 25.59">
            <path d="M27.71,8.07H21V2.59A2.61,2.61,0,0,0,18.36,0H2.59A2.6,2.6,0,0,0,0,2.59v9.49a2.61,2.61,0,0,0,2.59,2.6H4.13l1.93,2.59a.63.63,0,0,0,.55.26.78.78,0,0,0,.55-.26l1.93-2.59h.29v5.47A2.6,2.6,0,0,0,12,22.74h9.27l1.94,2.6a.59.59,0,0,0,.54.25.79.79,0,0,0,.55-.25l1.93-2.6h1.54a2.6,2.6,0,0,0,2.59-2.59V10.66A2.59,2.59,0,0,0,27.71,8.07Zm-19,5.25a.76.76,0,0,0-.55.26L6.57,15.7,5,13.58a.63.63,0,0,0-.55-.26H2.52a1.23,1.23,0,0,1-1.24-1.24V2.59A1.23,1.23,0,0,1,2.52,1.35H18.29a1.23,1.23,0,0,1,1.24,1.24v9.49a1.22,1.22,0,0,1-1.24,1.24H8.73ZM29,20.15a1.23,1.23,0,0,1-1.24,1.24h-1.9a.76.76,0,0,0-.55.26l-1.61,2.11-1.6-2.11a.63.63,0,0,0-.55-.26H12a1.24,1.24,0,0,1-1.25-1.24V14.68h7.63a2.55,2.55,0,0,0,1.39-.41h5.11a.66.66,0,1,0,0-1.31h-4a2.18,2.18,0,0,0,.15-.87V9.46h6.75A1.22,1.22,0,0,1,29,10.7v9.45Zm-3.51-2.77a.65.65,0,0,1-.65.65H14.9a.66.66,0,1,1,0-1.31h9.93A.65.65,0,0,1,25.48,17.38ZM15.37,10H5.48a.66.66,0,1,1,0-1.31h9.89a.65.65,0,0,1,.65.66A.62.62,0,0,1,15.37,10ZM4.82,5.51a.65.65,0,0,1,.66-.65h5.94a.66.66,0,1,1,0,1.31H5.48A.65.65,0,0,1,4.82,5.51Z" />
        </symbol>
    </defs>
</svg>
