<svg version="1.1" xmlns="http://www.w3.org/2000/svg">
    <defs>
        <symbol id="dashboard" viewBox="0 0 31 30">
            <path
                stroke="none"
                fill-rule="evenodd"
                transform="translate(-49.000000, -122.000000)"
                d="M64.7551095,149 L76.7551095,149 L76.7551095,131 L64.7551095,131 L64.7551095,149 Z M61.7551095,147.269 L58.7551095,143.5775 L58.7551095,126.6065 L61.7551095,130.121 L61.7551095,147.269 Z M52.7551095,143 L55.7551095,143 L55.7551095,125 L52.7551095,125 L52.7551095,143 Z M63.8761095,128 L58.7551095,122 L49.7551095,122 L49.7551095,146 L56.8786095,146 L61.7551095,152 L79.7551095,152 L79.7551095,128 L63.8761095,128 Z"
            />
        </symbol>
        <symbol id="send" viewBox="0 0 31 31">
            <path
                stroke="none"
                fill-rule="evenodd"
                transform="translate(-49.000000, -190.000000)"
                d="M49.7551095,206.15211 L57.6196095,199.78761 L57.6196095,204.30261 L68.1196095,204.30261 L68.1196095,207.30261 L57.6196095,207.30261 L57.6196095,212.51661 L49.7551095,206.15211 Z M79.7551095,220.80261 L79.7551095,190.80261 L64.7551095,190.80261 L64.7551095,196.80261 L67.7551095,196.80261 L67.7551095,193.80261 L76.7551095,193.80261 L76.7551095,217.80261 L67.7551095,217.80261 L67.7551095,214.80261 L64.7551095,214.80261 L64.7551095,220.80261 L79.7551095,220.80261 Z"
            />
        </symbol>
        <symbol id="receive" viewBox="0 0 31 31">
            <path
                stroke="none"
                fill-rule="evenodd"
                transform="translate(-49.000000, -259.000000)"
                d="M62.1616095,274.437 L69.1681095,281.859 L71.3491095,279.816 L67.7071095,276 L79.7551095,276 L79.7551095,273 L67.7071095,273 L71.3491095,269.112 L69.1681095,267.09 L62.1616095,274.437 Z M64.7551095,289.5 L49.7551095,289.5 L49.7551095,259.5 L64.7551095,259.5 L64.7551095,265.5 L61.7551095,265.5 L61.7551095,262.5 L52.7551095,262.5 L52.7551095,286.5 L61.7551095,286.5 L61.7551095,283.5 L64.7551095,283.5 L64.7551095,289.5 Z"
            />
        </symbol>
        <symbol id="addressBook" viewBox="0 0 31 29">
            <path
                stroke="none"
                fill-rule="evenodd"
                transform="translate(-49.000000, -327.000000)"
                d="M76.7551095,348.958477 L66.2551095,352.4888 L66.2551095,335.459406 L66.2551095,335.197574 L76.7551095,331.667252 L76.7551095,348.958477 Z M63.2551095,335.459406 L63.2551095,352.4888 L52.7551095,348.958477 L52.7551095,331.667252 L63.2551095,335.197574 L63.2551095,335.459406 Z M64.7551095,332.664568 L49.7551095,327.5 L49.7551095,351.035484 L64.7551095,356 L79.7551095,351.035484 L79.7551095,327.5 L64.7551095,332.664568 Z"
            />
        </symbol>
        <symbol id="sideStakes" viewBox="0 0 31 28">
            <path
                stroke="none"
                fill-rule="evenodd"
                transform="translate(-49.000000, -394.000000)"
                d="M61.7551095,400.5 L67.7551095,400.5 L67.7551095,394.5 L61.7551095,394.5 L61.7551095,400.5 Z M61.7551095,421.5 L67.7551095,421.5 L67.7551095,415.5 L61.7551095,415.5 L61.7551095,421.5 Z M73.7551095,421.5 L79.7551095,421.5 L79.7551095,415.5 L73.7551095,415.5 L73.7551095,421.5 Z M49.7551095,421.5 L55.7551095,421.5 L55.7551095,415.5 L49.7551095,415.5 L49.7551095,421.5 Z M54.2551095,412.5 L51.2551095,412.5 L51.2551095,406.5 L63.2551095,406.5 L63.2551095,403.5 L66.2551095,403.5 L66.2551095,406.5 L78.2551095,406.5 L78.2551095,412.5 L75.2551095,412.5 L75.2551095,409.5 L66.2551095,409.5 L66.2551095,412.5 L63.2551095,412.5 L63.2551095,409.5 L54.2551095,409.5 L54.2551095,412.5 Z"
            />
        </symbol>
        <symbol id="transactions" viewBox="0 0 31 26">
            <path
                stroke="none"
                fill-rule="evenodd"
                transform="translate(-49.000000, -459.000000)"
                d="M70.7551095,482 L76.7551095,482 L76.7551095,462.5 L70.7551095,462.5 L70.7551095,482 Z M52.7551095,467 L67.7551095,467 L67.7551095,462.5 L52.7551095,462.5 L52.7551095,467 Z M52.7551095,474.5 L67.7551095,474.5 L67.7551095,470 L52.7551095,470 L52.7551095,474.5 Z M52.7551095,482 L67.7551095,482 L67.7551095,477.5 L52.7551095,477.5 L52.7551095,482 Z M49.7551095,485 L79.7551095,485 L79.7551095,459.5 L49.7551095,459.5 L49.7551095,485 Z"
            />
        </symbol>
        <symbol id="messages" viewBox="0 0 31 23">
            <path
                stroke="none"
                fill-rule="evenodd"
                transform="translate(-49.000000, -523.000000)"
                d="M76.7551095,526.9365 L64.7551095,537.477 L52.7551095,526.9215 L52.7551095,526.5 L76.7551095,526.5 L76.7551095,526.9365 Z M52.7551095,543 L52.7551095,530.9175 L64.7551095,541.47 L76.7551095,530.9295 L76.7551095,543 L52.7551095,543 Z M49.7551095,546 L79.7551095,546 L79.7551095,523.5 L49.7551095,523.5 L49.7551095,546 Z"
            />
        </symbol>
        <symbol id="settings" viewBox="0 0 31 31">
            <path
                stroke="none"
                fill-rule="evenodd"
                transform="translate(-49.000000, -719.000000)"
                d="M65.6271893,734.24021 C65.6271893,735.06821 64.9551893,735.74021 64.1271893,735.74021 C63.2991893,735.74021 62.6271893,735.06821 62.6271893,734.24021 C62.6271893,733.41221 63.2991893,732.74021 64.1271893,732.74021 C64.9551893,732.74021 65.6271893,733.41221 65.6271893,734.24021 M71.3571893,736.27721 C70.6926893,738.78071 68.6676893,740.80571 66.1641893,741.47021 C60.4641893,742.98221 55.3851893,737.90321 56.8971893,732.20321 C57.5616893,729.69971 59.5866893,727.67471 62.0901893,727.01021 C67.7901893,725.49821 72.8691893,730.57721 71.3571893,736.27721 M77.6271893,732.74021 L75.1431893,732.74021 C74.7816893,732.74021 74.2851893,732.71621 74.2881893,732.35471 C74.2956893,731.02121 73.8591893,729.12521 72.8961893,728.08721 C72.6501893,727.82171 72.7221893,727.57871 72.9771893,727.32371 L74.7336893,725.66171 C75.3201893,725.07521 75.3201893,724.17221 74.7336893,723.58721 C74.1486893,723.00071 73.1976893,723.02471 72.6126893,723.60971 L70.8561893,725.37821 C70.6011893,725.63321 70.2066893,725.66471 69.9051893,725.46671 C68.8101893,724.74371 67.5726893,724.22321 66.2421893,723.95171 C65.8881893,723.87821 65.6271893,723.58571 65.6271893,723.22421 L65.6271893,720.74021 C65.6271893,719.91221 64.9551893,719.24021 64.1271893,719.24021 C63.2991893,719.24021 62.6271893,719.91221 62.6271893,720.74021 L62.6271893,723.22421 C62.6271893,723.58571 62.3661893,723.88121 62.0121893,723.95471 C60.6816893,724.22621 59.4441893,724.74821 58.3491893,725.47121 C58.0476893,725.67071 57.6531893,725.64521 57.3981893,725.39021 L55.6416893,723.63371 C55.0566893,723.04721 54.1056893,723.04721 53.5206893,723.63371 C52.9341893,724.21871 52.9341893,725.16971 53.5206893,725.75471 L55.2771893,727.51121 C55.5321893,727.76621 55.5711893,728.16971 55.3581893,728.46221 C54.6171893,729.48671 54.1431893,730.58321 53.9301893,732.50021 C53.8896893,732.85871 53.4726893,732.74021 53.1111893,732.74021 L50.6271893,732.74021 C49.7991893,732.74021 49.1271893,733.41221 49.1271893,734.24021 C49.1271893,735.06821 49.7991893,735.74021 50.6271893,735.74021 L53.1111893,735.74021 C53.4726893,735.74021 53.9106893,735.87221 53.9826893,736.22471 C54.2541893,737.55521 54.6366893,738.54821 55.3581893,739.64321 C55.5576893,739.94471 55.5321893,740.52671 55.2771893,740.78171 L53.5206893,742.63121 C52.9341893,743.21771 52.9341893,744.21371 53.5206893,744.80021 C54.1056893,745.38521 55.0566893,745.40921 55.6416893,744.82271 L57.3981893,743.07821 C57.6531893,742.82321 58.0476893,742.80371 58.3491893,743.00321 C59.4441893,743.72471 60.6816893,744.25121 62.0121893,744.52271 C62.3661893,744.59621 62.6271893,744.89471 62.6271893,745.25621 L62.6271893,747.74021 C62.6271893,748.56821 63.2991893,749.24021 64.1271893,749.24021 C64.9551893,749.24021 65.6271893,748.56821 65.6271893,747.74021 L65.6271893,745.25621 C65.6271893,744.89471 65.8881893,744.59921 66.2421893,744.52571 C67.5726893,744.25421 68.8101893,743.73071 69.9051893,743.00921 C70.2066893,742.80971 70.6011893,742.83521 70.8561893,743.09021 L72.6126893,744.84671 C73.1976893,745.43321 74.1486893,745.43321 74.7336893,744.84671 C75.3201893,744.26171 75.3201893,743.31071 74.7336893,742.72571 L72.9771893,740.96921 C72.7221893,740.71421 72.6966893,740.31971 72.8961893,740.01821 C73.6176893,738.92321 74.0091893,738.31121 74.4126893,737.10521 C74.5281893,736.76321 74.7816893,735.74021 75.1431893,735.74021 L77.6271893,735.74021 C78.4551893,735.74021 79.1271893,735.06821 79.1271893,734.24021 C79.1271893,733.41221 78.4551893,732.74021 77.6271893,732.74021"
            />
        </symbol>
        <symbol id="search" viewBox="0 0 21 21">
            <path
                stroke="none"
                fill-rule="evenodd"
                transform="translate(-14.000000, -13)"
                d="M34.2250257,32.4447099 L32.8110257,33.8587099 L28.5680257,29.6167099 L29.9820257,28.2017099 L34.2250257,32.4447099 Z M22.2250257,27.8587099 C18.9170257,27.8587099 16.2250257,25.1677099 16.2250257,21.8587099 C16.2250257,18.5507099 18.9170257,15.8587099 22.2250257,15.8587099 C25.5330257,15.8587099 28.2250257,18.5507099 28.2250257,21.8587099 C28.2250257,25.1677099 25.5330257,27.8587099 22.2250257,27.8587099 L22.2250257,27.8587099 Z M22.2250257,13.8587099 C17.8070257,13.8587099 14.2250257,17.4407099 14.2250257,21.8587099 C14.2250257,26.2767099 17.8070257,29.8587099 22.2250257,29.8587099 C26.6430257,29.8587099 30.2250257,26.2767099 30.2250257,21.8587099 C30.2250257,17.4407099 26.6430257,13.8587099 22.2250257,13.8587099 L22.2250257,13.8587099 Z"
            />
        </symbol>
    </defs>
</svg>
